/* XPM */
static char *_3a81c5acb434245a57e6bea614b076fxbYRV9hHjGudymq1[] = {
/* columns rows colors chars-per-pixel */
"64 64 40 1 ",
"  c gray39",
". c #656565",
"X c #6A6A6A",
"o c #6D6D6D",
"O c gray45",
"+ c #747474",
"@ c gray47",
"# c gray49",
"$ c gray51",
"% c gray52",
"& c #888888",
"* c #8D8D8D",
"= c #939393",
"- c gray59",
"; c #9A9A9A",
": c #9D9D9D",
"> c gray64",
", c #A7A7A7",
"< c #A9A9A9",
"1 c #AEAEAE",
"2 c #B1B1B1",
"3 c gray71",
"4 c #B9B9B9",
"5 c #BCBCBC",
"6 c gray76",
"7 c #C6C6C6",
"8 c #CACACA",
"9 c gray81",
"0 c gray82",
"q c gray83",
"w c gray85",
"e c gainsboro",
"r c #E2E2E2",
"t c #E7E7E7",
"y c #E9E9E9",
"u c #EFEFEF",
"i c #F1F1F1",
"p c gray97",
"a c gray98",
"s c white",
/* pixels */
"%$$%%&%%&&%%%%&&%&&%&&%&%%&&%&%%&&%&&%%&%&&%&&%&&%&&%&&%&&%&%%%*",
"oXXoOO++OOOOOO+++OOOOOOO++OOOO++OOOOOOOOO+++++OOOOOOO+OOOOOOOOo@",
"+oOoXooXXXOOOX   XoXXoooXoXoooXoXoooXOOOX      XXXXooXoXXooXO++#",
"OOX-<<,<<<*&%1766<<<<<<<<<<<<<<<<<<<<*&$17566661<1<<<<<<<<<1-O+#",
"OO 3wq0qqq<:=essawwwwwwwwwwwwwwwwwwwq,:-esssssseqwwqwwwwqwww3X+#",
"OO.2q99909>;=0sai00q0q00q0q0000000000:;=wapppppw0qq00qq0qq0w3X+#",
"oO 1098998,;=qsai99999090090000000999>:=wsppuiiq9990009909902X+#",
"OOX;322111::=qssu11121121125656564111::=waat1222122121121213;O+#",
"OOX;322<11::-qssu<1111111125566664<1<::=waat<111111111111212;o+#",
"OoX:321111::=qssu11111111125665664111::-wssy<221121112111112;O+#",
"Oo.:312211::-7rrq11111124446654231111::-8req1121121212121445>o+#",
"OOX:322222>;-409811111136666562<11111::-50081111111211121567<o+#",
"OO.:322222>:-5qq811111<35566663111111;:-5wq81112221112111566,o+#",
"OoX;312121::-4qq911123246654442111111::-6qq81112111212232567,X+#",
"OoX:321111::;5wq9<115666565111111111<::;5qq81111111212666667,o+#",
"OOX;32211<::-5q0811155566652111111111::-6qq91121221122566657>o+#",
"OOX;312111::;4w0912156566551111111121::-5wq81111121112666557,X+#",
"OoX:322121::;4qq045456641121111113554::-6qq81122113655666323;O+#",
"OOX;322222>:-4qq9566566311111111<3565:;;5q08<211113666656212-O+#",
"OoX;322222::-5eq066666641111212113675>:-6eq91221224766766313;o+#",
"+Oo-<>,>,,;;;<433<<1111,>,>>>>>,,,1<1;;;1433>>,>>,<111111,>,=oO+",
"+OO*:;;;;;;;:;--;;;;-;-;;;;;;;;;;;-;;;:;----;;;;;;;----;;;;;&oO+",
"++O*;-;-;--;;-;;;;;-;::;--;---;--;;;;-;-;;;;-;;;-;;:;:---;;;%oo@",
"++o=<>>,>>,>>,>,>>>,:;->11<<11,>>>,>>,>>>>,>,>>,,>:;;:<1<<<2-XO@",
"OO 2w00q00q00qqq0qqq<:=8apapppe0000q0qqqq0qq0q000w4-;1ipppia9 +@",
"OO.3wqqqwqwqqqqqqqqw<:=8spaassrqwqq0qqqqqqqqqqqqqw4;;1ppppas9 @#",
"OO.10888899899999889,;=8aapyyyq89899900009999898892;-1pipyty6.+#",
"OOX;2121111113564<1<::=8sai212222212256565652221<1,:-1ppp5>1-O+#",
"oOX;3222222324655111>;=7sai33323232326666665232112,;;1ppp6<3;O+@",
"OOX:3122222214665111>:=8aai22232323335566565232111,;-1pip6<2;o+#",
"ooX;3222224555655222::-4eeq33323235555664333323223,;;,www412;o+#",
"OOX:3222225665665222>:-3q0033232246676664232232323<;;,q00412;O+#",
"OOX;3222215656665222>:;3wq032322236656664233233223<:;,qqq412;O+@",
"oOX;3223445565344111::-3w0023244456664443232322222,;;,0qq412;o+#",
"OOX;3136666663121111>;-3qq9322566666623223232322<1,;;,qqq4<2;o+#",
"OoX;3235555664222111>;;3wq032346665653233232322111,;;<qqq412;O+#",
"OoX;3236665563222111::-3qq033256666562323233333212,;;,qqq412;o+#",
"OO.,7565653222222122>;;3wq0665665523232323236565661;;,qqq4<3;O+@",
"OO.,7565652222222222>;-3qq9656656522323232236566571;;,0q04<2;O+#",
"OO.<7566663222222222>;-4eqq676667533233323337666671;;,qqq412;O+#",
"Ooo-<,,<,,>>>>>>,>>>:;;>211,,<,,,,>>>>>>>>>>,,<,,<>;;:212,:,=O+@",
"Ooo&:;;;;;;;-;;;;;;;;::;--;;;;;;;;;;;;;;;;;;;;;;;;;:::---;;:&O+#",
"Ooo&;;--;-;;;---=-;-----;;;;-;-;----;;;;---==-=;-;-----;;-;;&O+#",
"OOX-1<<<<1:;;<444<<111<1<1<1<11<11<1<;:;144444411<11<111<1<1-O+#",
"OO.2q00000,:=qssaqqqqqqqqqqqqqqqqqqq0>:=wsaaaaaw0qqqqqqqqqqw3X+#",
"OO.2q00909>;=0sai0q00qq0qqq0qq0qq0qq0::=qapppapw0q0qq0q00q0w3X+#",
"OO.2q99909,:=0sap000000000000000q0q00>;=wspapapw0qqq0q0qqq0w2X+#",
"OoX:433222::=qssu23332332336766665232::=waay3543332333332324:O+#",
"OOX;22111<::-0ssu<11<111<<15656664<1<::=waay,111111111111112;o+#",
"OoX;322111::=qssu11111111116566564111::=wsay<211111221112112;o+#",
"OoX;312111::=8yye11111123345564332111::-8ytw1121111221111344>o+#",
"OOX:322222>;;409711111136666662<11111::;50071211221111222567,o+#",
"OOX:312222::-5qq911111136566563111111;:-6qq91112112112211466,o+@",
"OoX;322121>:-4qq811112136665552111111::-5wq81111121111222567,o+#",
"OOX;321111::;5w0811156565551111111111::-6qq81112112212656567<o+#",
"OoX;32211<::-5qq811146666652111111111::-6qq81211211112666657,o+#",
"OoX;321111::;5qq81114665665111111111<::;5qq81121211112566667,o+#",
"OOX:312112::-4qq944455642321111112444::-6wq91112113545666333:o+#",
"OOX;312222::;4qq96566564<1111<11<2665::-5q081211113666565212;O+#",
"OoX:423332>:;5ww067676742222222223766>:;6ww91222224776767323;o+#",
"Ooo*>>::>:==*,443<11<1<,:::::::::><1<=**1442::::::,<<<11<>::*O+#",
"OooOoOoOooO+OoXooooooooOOooOoOOOoOoooOOOoXoooOoOOoOoOoooooOOO++@",
"OoOO++@+++++@++@+@@+@@@++++@+@+++@+@@++++@@++@+@+++++@@+@++@+++#",
"OooO+O++++OO+O++O++OOO+++OO++++OO+OO+OO+O++O++++++++O+++++++++O@"
};
