/* XPM */
static char *abd0fbc963564288bea62593d4809aeet4AsmPWyW0abYNxi[] = {
/* columns rows colors chars-per-pixel */
"64 64 190 2 ",
"   c None",
".  c #880000",
"X  c #842300",
"o  c #9A5600",
"O  c #956300",
"+  c #9D6600",
"@  c #956900",
"#  c #9E6C00",
"$  c #9F7100",
"%  c #A26500",
"&  c #A36D00",
"*  c #A57200",
"=  c #AB7400",
"-  c #AC7B01",
";  c #AE7E0C",
":  c #B37500",
">  c #B27C00",
",  c #B87D00",
"<  c #AD7E14",
"1  c #A97C18",
"2  c #AE7F21",
"3  c #AE800E",
"4  c #B58200",
"5  c #BA8401",
"6  c #BD8A01",
"7  c #B9870F",
"8  c #AF8011",
"9  c #B18214",
"0  c #B2841A",
"q  c #BC8C1A",
"w  c #AE8024",
"e  c #AE822B",
"r  c #B18424",
"t  c #B68925",
"y  c #BB8E2B",
"u  c #BA8D27",
"i  c #BD912D",
"p  c #B48935",
"a  c #BD9231",
"s  c #C38D02",
"d  c #C28806",
"f  c #C79100",
"g  c #C5910B",
"h  c #CF9700",
"j  c #D49C00",
"k  c #D19A0B",
"l  c #D39D1A",
"z  c #D29C17",
"x  c #DEA50C",
"c  c #DEA514",
"v  c #EFAD00",
"b  c #E0A60C",
"n  c #E5A700",
"m  c #F8AD00",
"M  c #EFB206",
"N  c #F6B501",
"B  c #F9B500",
"V  c #FAB901",
"C  c #F2B40B",
"Z  c #F7B80C",
"A  c #F9B90B",
"S  c #F7B805",
"D  c #E0A714",
"F  c #E2A812",
"G  c #E6AB17",
"H  c #ECB015",
"J  c #EEB118",
"K  c #F6B711",
"L  c #F8B915",
"P  c #F1B41B",
"I  c #F9BA19",
"U  c #C39A3E",
"Y  c #CE9B36",
"T  c #DCA528",
"R  c #E0A723",
"E  c #E0A82C",
"W  c #EFB32E",
"Q  c #F8BB24",
"!  c #F7BC2C",
"~  c #F8BD2D",
"^  c #E0A935",
"/  c #E1AB3F",
"(  c #F7BD33",
")  c #F9BE32",
"_  c #F7BF3A",
"`  c #F8BF39",
"'  c #F6C03C",
"]  c #F8C03A",
"[  c #F7D03F",
"{  c #B68F57",
"}  c #BB955C",
"|  c #BE9C6E",
" . c #B99461",
".. c #BE9D71",
"X. c #C59D41",
"o. c #C49E56",
"O. c #CAA245",
"+. c #CBA44B",
"@. c #CFA94C",
"#. c #D2AA4D",
"$. c #D6AF52",
"%. c #D6B156",
"&. c #DBB65A",
"*. c #DDB95D",
"=. c #D8B357",
"-. c #E7BB59",
";. c #C0A37B",
":. c #E2BF63",
">. c #F7C244",
",. c #F8C241",
"<. c #F6C34A",
"1. c #F8C54C",
"2. c #F7D249",
"3. c #F4C553",
"4. c #F9C552",
"5. c #F7C856",
"6. c #F8C955",
"7. c #F6C95C",
"8. c #F8CA5A",
"9. c #F0C55A",
"0. c #F7D45C",
"q. c #F9D557",
"w. c #E4C264",
"e. c #E5C369",
"r. c #EECC6D",
"t. c #E8C76B",
"y. c #F6CB61",
"u. c #F8CD62",
"i. c #F3CD6B",
"p. c #F8C769",
"a. c #F7D462",
"s. c #F7D36C",
"d. c #F8D26C",
"f. c #FBD96B",
"g. c #EECE71",
"h. c #F0CF70",
"j. c #F8CA75",
"k. c #EFD073",
"l. c #F6D575",
"z. c #F8D674",
"x. c #F8D977",
"c. c #F7D778",
"v. c #F7D879",
"b. c #F9DA7B",
"n. c #FFE07E",
"m. c #C6AA89",
"M. c #CDB08E",
"N. c #CAB193",
"B. c #D3BFA9",
"V. c #D0BBA3",
"C. c #F8CF84",
"Z. c #F9DC81",
"A. c #F9DB8A",
"S. c #F6D986",
"D. c #F9DD94",
"F. c #F9D29B",
"G. c #F9DF9C",
"H. c #F4D892",
"J. c #FEE282",
"K. c #FFE688",
"L. c #FBE19E",
"P. c #D6C3AF",
"I. c #D6C5B2",
"U. c #DCCAB6",
"Y. c #F4D6AD",
"T. c #E0CCB6",
"R. c #FCDCB3",
"E. c #F9E3A7",
"W. c #FAE3AA",
"Q. c #F9E5B4",
"!. c #FBE9BD",
"~. c #F8E5B9",
"^. c #DDCFC1",
"/. c #DFD2C5",
"(. c #E1D4C7",
"). c #E5D7C5",
"_. c #E7DED4",
"`. c #E9DFD5",
"'. c #FBEDCA",
"]. c #FBEAC3",
"[. c #EBE3DE",
"{. c #FCEFD2",
"}. c #FCF2DB",
"|. c #F2ECE6",
" X c #FDF5E4",
".X c #F5F1ED",
"XX c #FDF8EA",
"oX c #FEFBF4",
"OX c #FFFFFE",
"+X c #F8F5F3",
/* pixels */
"                                                                                                                                ",
"                                                                                                                                ",
"                                                                                                                                ",
"                                                                                                                                ",
"                                                                                                                                ",
"                                                                                                                                ",
"                                                                                                                                ",
"                                                  - 5 - - - - - - - - - - - - 4 -                                               ",
"                                                  ; 7 < 3 3 3 3 ; < ; 3 ; < ; - -                                               ",
"                                          ; ; - - w.l.r.r.r.r.r.i.r.r.i.r.k.w.- - 3 3 - - -                                     ",
"                                          5 = - = k.K.b.b.J.b.n.J.b.b.Z.Z.J.g.* * = - - s -                                     ",
"                                      = O.w.*.*.*.3.1.<.<.<.1.1.<.4.<.<.1.<.<.&.*.-.:.U - 8 - -                                 ",
"                                    * , #.J.b.J.J.( N B V V V V V V V V V B ] n.J.b.J.@.o - s -                                 ",
"                                    O.O.*.b.l.u.7.~ V H c F G F F F F c H V ~ 7.y.l.b.*.O.U - 3                                 ",
"                                - > w.n.x.b.d.B N V V j # * * * * * * # j V V N S d.b.z.n.:.$ * 4 4                             ",
"                                t q w.b.z.z.s.Z V C N l r t t t t t u w l N Z S Z s.l.z.n.w.0 t 3 4                             ",
"                            = 0 r.b.l.b.u.B I S S g $ &.b.l.l.l.l.l.z.b.&.* 6 A V I B u.b.l.v.r.8 - - 4                         ",
"                            > 9 l.b.c.b.u.N S V V 7 O *.b.b.b.b.b.b.b.b.&.@ 6 S V S B u.b.z.b.l.8 - - 6 -                       ",
"                            e p g.b.5.] ( V C g g -.t.3.] 6.c.z.z.b.5.) 3.t.-.s f M V ) _ 5.b.l.0 ; - 4 -                       ",
"                            % = i.b.,.N S V N # O g.K.4.B _ Z.b.v.b.` m 4.K.l.@ $ v V B B >.b.h.* $ - 6                         ",
"                        & ;.^.U.S.b.1.V H j T %.&.3.8.` V ( 5.8.z.b.u.5.5.8.<.j x x h H V <.b.l.=.%.y - ;                       ",
"                      p d M.OXOXA.q.<.V c O y x.b.~ N B S B B A z.b.b.Z.8.B N V S 4 @ x V >.b.x.b.n.X.* 9 s -                   ",
"                        = m.OXoXQ.E.p.V c $ a l.l.] N L S A N Q u.d.l.v.7.] ] S S 6 $ x V <.b.c.b.x.U * ; 4 -                   ",
"                        : m.OXOXOXOXF.V T # a c.b.) B S V S V S V N u.b.c.b.s.S N 6 $ x V <.b.z.x.b.U * 3 5 -                   ",
"                        : m.OXOXOXOXF.B R $ a b.b.` N L S V S S C V u.b.z.b.s.A K 6 $ b V <.b.c.c.b.U * 8 4 -                   ",
"                        : m.OXOXOXOXF.B T # i c.x.z.z.1.B S S V S V Q L 8.v.l.z.l.a # c V >.b.c.c.c.U * 8 4 4                   ",
"                        : m.OXOXOXOXF.B T * i s.f.l.b.4.B V V B V S S N 4.b.c.b.v.a # D V >.b.c.b.b.U * 3 4 -                   ",
"                        : m.OXOXOXOXF.B E + } }.}.D.z.l.7.6.S K B V S V ) 1.4.c.l.a * D V 1.b.z.z.x.U * 8 4 -                   ",
"                        : m.OXOXOXOXF.B ^ % ..OXOXD.2.z.Z.d.B B V N S V V B ! b.c.a # c V <.b.z.b.x.U * 3 4 -                   ",
"                        : m.OXOXOXOXF.B ^ % | oXOX'.!.G.z.d.1.1.L V S S S S ! u.8.u * c V <.b.v.c.b.U * 9 4 -                   ",
"                        : m.OXOXOXOXF.V ^ + ..OXOXOXOX].q.z.b.z.I N S S S V N B N 6 * b V >.b.l.c.c.U * 3 4 -                   ",
"                        : m.OXOXoXOXF.B ^ + ..OXOXOXOX'.A.D.v.l.] ! I V S S V A C 6 * b V <.b.z.b.b.U * 8 4 -                   ",
"                        : m.OXOXOXOXF.B ^ + ..oXOXOXOXOXOX}.s.b.x.b.,.B Z S N V N 6 $ x V 1.b.c.c.b.U * 3 5 -                   ",
"                        : m.OXOXOXOXF.B ^ + ..OXOXOXOXOXOX Xa.x.b.c.,.N A B S V N 6 $ x V >.b.c.x.b.U * 9 4 -                   ",
"                        > o.L.E.oXOXF.B ^ + | OXOXOXOXOXOXoXXX XS.z.z.z.6.B S V N 6 * b V >.b.x.c.c.U * 3 4 -                   ",
"                        > U d.v.oXOXF.V ^ @ | OXOXOXOXOXOXOXOXOXZ.0.z.b.5.N N V N 6 $ b V 1.b.x.b.b.U * 8 4 -                   ",
"                        , X.b.b.!.'.j.B ^ % ..OXOXOXOXOXOXOXOXOX{.'.G.x.z.8.4.Z Z 6 & b V <.b.c.z.b.U * < 5 -                   ",
"                        > U b.l.a.a.] V T & ..OXOXOXOXOXOXOXOXOXOXOXW.[ z.b.z.B N s # x V <.b.c.z.b.U * ; 5 -                   ",
"                        > U b.b.b.Z.1.V E + | OXOXOXOXOXOXOXOXOXOXOX'.W.G.x.l.' -.g & F V >.b.z.b.b.U * < 4 -                   ",
"                        , U b.x.c.b.>.V T + | OXOXOXOXOXOXOXOXOXOXOXOXOX{.0.x.b.v.a # F V <.b.c.z.b.U * ; 5 -                   ",
"                        > X.b.x.c.b.<.V E % | OXOXOXOXOXOXOXOXOXOXOXOXOX{.b.S.c.c.a $ D V >.b.c.z.b.U * ; 4 -                   ",
"                        > U b.x.c.b.>.V E % | OXOXOXOXOXOXOXOXOXOXOXOXOXoXOX Xc.l.a * D V 1.b.c.z.b.U * 8 4 4                   ",
"                      9 5 U b.b.c.b.<.V T o ..OXOXOXOXOXOXOXOXOXOXOXOXOXOXOXXXb.Z.a O c V >.v.l.b.b.U * 8 6 -                   ",
"                            O.O.l.b.>.B P n / N.N..XOXOXOXOXOXOXOXOXOXOXOXOX.XX.+.T G P B <.b.l.O.O.r 4 ;                       ",
"                            = - l.Z.,.N S A N + + .XOXOXOXOXOXOXOXOXOXOXOXOX.Xo + v V B B -.b.l.- * - 5                         ",
"                            - r r.b.7.<.,.S J c l U./.|.OXoXOXOXOXOXOXOX|././.I.I.Y.R.C.,.8.b.h.9 - - 5                         ",
"                            5 q l.b.c.Z.7.N S V V 5 X /.OXOXOXOXOXOXOXOX^.. { OXOXOXOX!.2.z.b.l.0 - - f -                       ",
"                            - 9 t.r.z.b.u.! ] S N Y 5 U..X|.|.|.|.|.|..X/.| V.OXOXoXOX'.L.D.i.w.8 - - -                         ",
"                                8 - w.b.x.b.z.S B N V k 1 < 1 < - - e % I.OXOXOXOXOXOXOXOX_.& < < 4                             ",
"                                - = w.b.x.b.d.K V S V j * : - = - - 2 % I.OXOXOXOXOXOXOXOX_.& ; < -                             ",
"                                    a i %.b.l.d.d.) V P J W m -.|.+X.X.X+XOXOXOXOXoXOXU.{  .- ;                                 ",
"                                    - , #.J.b.n.b.] B V V L B 4.OXOXOXOXOXOXOXOXOXOXOXB.o - s -                                 ",
"                                        U #.@.#.#.9.7.7.7.u.8.i.Q.~.XXOXoXOX+XB.B.B.I...- e                                     ",
"                                          d = - = l.K.b.J.b.Z.b.z.q.XXOXOXOX.X% & = = > s -                                     ",
"                                          3 3 ; 3 *.w.w.w.:.w.w.e.w.T.|.`.`.(.; w e 2 2 -                                       ",
"                                                  * 5 * - - : - - = = = = = = 7 -                                               ",
"                                                  ; ; ; ; 3 ; ; ; - w e r w w - -                                               ",
"                                                                                                                                ",
"                                                                                                                                ",
"                                                                                                                                ",
"                                                                                                                                ",
"                                                                                                                                ",
"                                                                                                                                ",
"                                                                                                                                "
};
