/* XPM */
static char *f17d9d6a89764d63ca48f4e01a4af9d7ZQb7RpNOOtkOiIKY[] = {
/* columns rows colors chars-per-pixel */
"64 64 86 1 ",
"  c #002D00",
". c #003100",
"X c #073A01",
"o c #0A3C01",
"O c #0C3D0C",
"+ c #0D400D",
"@ c #154602",
"# c #154802",
"$ c #005F00",
"% c #016000",
"& c #0B6401",
"* c #246E03",
"= c #327405",
"- c #2E512E",
"; c #345534",
": c #365836",
"> c #3B5C3B",
", c #4C7C07",
"< c #527F07",
"1 c #405C40",
"2 c #456145",
"3 c #496449",
"4 c #506C50",
"5 c #577257",
"6 c #646464",
"7 c #6C6C6C",
"8 c #737373",
"9 c #7C7C7C",
"0 c #008400",
"q c #008B00",
"w c #088F01",
"e c #009000",
"r c #0D9201",
"t c #149502",
"y c #199702",
"u c #169902",
"i c #1A9B02",
"p c #279C03",
"a c #299D03",
"s c #528107",
"d c #568308",
"f c #598508",
"g c #46A906",
"h c #49AB06",
"j c #55A507",
"k c #52AE07",
"l c #55AF08",
"z c #58AF08",
"x c #57B008",
"c c #5BB108",
"v c #62B509",
"b c #65BA09",
"n c #89AF0C",
"m c #84B70B",
"M c #95BE0D",
"N c #83C20B",
"B c #90C60D",
"V c #9CC10E",
"C c #95C90D",
"Z c #9CCC0E",
"A c #9DD10E",
"S c #A3CD0E",
"D c #A5D10F",
"F c #ABD30F",
"G c #B1D60F",
"H c #AED410",
"J c #B1D510",
"K c #B3DA10",
"L c #B9DC11",
"P c #878787",
"I c #8C8C8C",
"U c #949494",
"Y c #9B9B9B",
"T c #A4A4A4",
"R c #ADADAD",
"E c #B2B2B2",
"W c #BCBCBC",
"Q c #C2C2C2",
"! c #C5C8C5",
"~ c #CECECE",
"^ c #D3D3D3",
"/ c #D9D9D9",
"( c #E3E3E3",
") c gray92",
"_ c #F4F4F4",
"` c #FCFCFC",
/* pixels */
"PP9PPPPPPPPPPPPPPPPPPPPPPPPPPPPPPPPPPPPPPPIPPPPPPPPPPPPPPPPPPPPP",
"7777888888788888888888888888888888888888888888888888888888888888",
"8887777777888766677777777777777777777888666666676777677777778889",
"877UETTTTTUPPR!QQTRTRTRTRRTRRTRTTRTRTPPPR!QQ!QQRRRRTRRTRRTRRU889",
"886E/^^^^^TYU/```^/////////^/////^//^TYU/``````/^///^/^/////W789",
"876E^^^~^^TYU^``_^^^^^^^^^^^^^^^^^^^^TYU/`_`_``/^^^^^^^^^^^/E689",
"886R^~~~~~TYU/``_~^~~~~~~~~^~~^~^~~~~TYU/``____~~~~~~~~~~~~^E799",
"877YEERRRRYYU^``)RRRREREREEWQQWQQWRERYYU/``(REEEEREEEEEEREREY889",
"876YEERRRRYYU^``)RRRRRRRRRRWQWQQQERRRYYU/``(RRRRRRRRRRERREREY789",
"887YERERRRTYU^``_RERREERRREQQQQQQWRREYYU/``)TEERRERERERRRRREU889",
"887YEEERRRYYUQ((/TRRRRREWWWWQWEEEERRRYYU!((^RRREERERERERRWWWT789",
"877YEEEEEETYUW^^~RRRREREQWQQWQERRRERRYYYW^^!REREERRRERRERWQ!T799",
"877YEEEE............... ..........  ..   . ...  . ..   . WQQT789",
"886YEERR..XXXXXXXXXXXXXXXXXXXXXXXXooXXXoXXXXoXXXXXXXXoX. QQ!R789",
"887YEERR.XnVVVVVVVMVMMVBMMMVVVVVMSMVMVVVVVVVMVVVVVVVSMM@ !QQT789",
"886YEEER.XjbvvvvvNJFFFFGFJBvvvvvvvvvbvbvvvbvbvvbvvvvvvzo QQ!T799",
"876YEERR..0qqqqq0gJFFSFFFHcqqqqqqqqqqqqqqqqqqqqqqqqqqqqX.QQ!T789",
"887YEEEE.XmZCZz00hJFFFFFFJvqNZBtqqqqqqqqqqqqqqCxqBc0NVB@ EEEY789",
"886YERRE.XVGFKvqqgJFSFFFFHvqCGFtqqqqqqqqqqqqqqzzhcxkSHS@.EREY789",
"787YEEEE.XMGFJvqqhJFHFFFHJvqCFStqqqqqqqqqqqqqqqhHrgJHHS@ EEEY899",
"887URTTT.XMFFJv00hHFFFSHFJvqCGDtqqqqqqqeqqqqqwCvrBvrCFS@ TTTI789",
"988IYYYY.XMFFJvqqgJFFFFFFJcqCFStqqqqqqqqqqqqqqzzhcxkZFS@.YYYP788",
"888IYUUY.XMFFJvqqgJFFFFFFJvqCFStqqqqqeqqqqqqqqqgHtgHFFS@ YUYP778",
"887UTTTT.XMFFJv00hHFFFHSFJcqCGDtqqqqqqqqeqqqqwCvrBcrCGS@.TRRU789",
"886E^^^^ XMFFHvqqgJFSFFFFJcqCGDtqqqqqqqqqqqqqelzhzlkSHS@.__`~689",
"886E/^^/.XVFFJv0qhJFFFFFFHvqCFStqqqqqeqqqqeqqqqhFtgFSHS@ ```~689",
"886E~~~~.XMFFJvq0gJFFFFFFJvqCGDtqqqqqqqqqqqqqrCvrBvrVFS@ )()Q689",
"877YERRR.XVFFJv0qgJFFFFFFJvqCFStqqqqqqqeeqqqqellkxllSFS@ QTRU889",
"876YEEEE.XMFFGvqqgJFFFFSFHvqCHStqeqqqqqqqqqqqqqhDtgFFFS@ QTEY889",
"887YEERE.XVFFJvq0hJFFFFFFJvqCHDtqqqqeqqqqqeqqwCvwCvrCFS@.QREY789",
"886YEEEE.XMFFJv0qgJFFFFFFJvqCHStqqqqqqqeqqqqqqllklklZFS@ WREY889",
"877YEEEE.XMFFJvqqhJFSFFFFHcqCHStqqeqqqqqeqqqqqqhStgHHHS@.ERRY799",
"877YEEEE.XVLJLbqqkLJKKJJJLbqALFueeeeeeeeeeeeeeCbrAbrAKF# WREY789",
"877YEREE.X,dff=%%*fdddfddf=$sfs&$%%%%%%%%%%%%&s=%s=%sfso.EREY789",
"887YWREQ++O.                      .     .  .      .   OO+WTEY799",
"877YEREQRER5.     .                 .  .            .-!!!WREY889",
"887YEREQQQW5X,ddf=$$*fddddds&*dd=%%%$$$%%%%$*d%*f<f<o;^/^EREY789",
"877TQQQQQQE4XVJJLbqqhLJKJJJFthLLbqeeeeeeeeeqhDikHJKF@;^^^WREU889",
"886TQQWQQQR4XBFFJvqqhGFFDFFDrgJJvqqqqqqqqqqqerCvqCFS#-^^^WTEY789",
"877TQQQQQQE4XVGFJvq0hFFFFFFDrgJJvqqqqqqqqqeqpckkcDFS#;/^^WREY899",
"877URTTRRTT3XMFFJv0qhJFFFFFSrgJJvqqqqqqqqqqqhDthFFFS#-ERETYTU889",
"877IYUUYUYY2XMFFJvqqgJFFDFFSrgJJv0qqqqeqqqqqqrCvqCFS#-YUUYYYP889",
"877IYUYUYUY2XMHFJv00hJFFFFFSrgGJvqqqqqqqqqqqpxkxcSFS#-UYYYUYP889",
"887URTRRRTY1XBFFJvqqhJSFFFFSrhJJvqqqeqqqqqqqgDthFFFS#-RRTRRRY889",
"886E/^^~^^T2XMFFJv0qhJFFFFFSrgJJv0qqqqqqqqqqqrZcqCFS#2^^^^^/E789",
"886E^~^~~^T2XVFFJvqqgJFFFFFSrgJJvqqqqqeqqeqqackkcSFS#1^^^^^/E799",
"786R/^~~^~T2XVFFJvq0gJFFFFFSrhJJvqqqqqqqqqqqgStgDFFS#2^^^^^/E789",
"887TEEEEEEY2XMFFJvq0gHFFFFFSrgJJv0qqeqqqqqqeqrZvqVGS#:EWEEEEY889",
"887YEERRRRT2XMFFJvqqhJFFFSHSrhJJvqqqqqqqqqqqackxvZFS@;RRREREY889",
"787YEEERRRY2XVFFJv0qgJHSFFFSrgJJvqqqeqqeqqqqgSthDFFS@:RRRRREU789",
"887UEEERRRY2XBFFJvq0hJFFFFFSrgJJvqqeqqqqqqqqqrCvqCGS@:EREWEWT789",
"777YEREEEET2XVFFJv0qhJFFFFFDrgJJv0qqqqqqqqqqpvklvSFS@:RERWQ!T799",
"887UEREEREY2XMFFJv0qhJFFDFFSrgJJv0qqqqeqqqqqgZyhSFFS@;RRRWW!T889",
"877YERREERT2XBFFJvq0hJSFFFFDrgJJvqqqqqqqqqqqqrCvqCHS@;EEEWQ!T789",
"877YEEERRRT2XMFFJvq0hJHFFSFStgGJvqqqqqqqqqqqavhlvSFS@:QWQWQ!T789",
"887YWRRRRRY2XVFFJvqqhJSFFFFSrgJJvqqqqeqqqqqqgZyhFFFS@:QQQQQ!T889",
"877YEERRRRY3oMHHJv0qhJDHFDFDrgJJvqqqqqqqqqqqqrZv0CHS@;QWQQQQT789",
"877YEREERRY2oMFDJvq0hJHHFFFDtgJJvqqqqqqqqqqqavhkvSHS@>QQWWRWT789",
"886YEEEEEET2XMFFJvq0hJHSFFFSrgJJvqqqqqqqqqqqgAyhSFFS@>QQQRRRY899",
"877YWEEEEET1XVGFJvqqgJFFFFFSrgJJv0qqqqeqqqqqqrCvwCJS@1!QQWRWY789",
"887ITTYTYTU1XBHFJvqqhJFFSFFSrgJJvqqeqqqqqqqqqqSvqCFS@;RRRTYYI889",
"8787877778778777777777788778788787777888777788787877787777888889",
"8878889898898989899898988889988889899888898988988898889889988889",
"8778888888888887888888888888888888888888888888888888888888888889"
};
