/* XPM */
static char *_db79a6c5998404e8f22b3e7cb8b54a5PL9ZU5NxBZpsM0WO[] = {
/* columns rows colors chars-per-pixel */
"64 64 178 2 ",
"   c None",
".  c #000000",
"X  c #0D0502",
"o  c #180C03",
"O  c #1F1105",
"+  c #001C0B",
"@  c #281808",
"#  c #351D0C",
"$  c #39240F",
"%  c #541200",
"&  c #7A0000",
"*  c #562F11",
"=  c #6D3400",
"-  c #763E0B",
";  c #743904",
":  c #682E00",
">  c #7B400E",
",  c #7F4514",
"<  c #734917",
"1  c #7F471F",
"2  c #764B19",
"3  c #784D1B",
"4  c #7D501B",
"5  c #694523",
"6  c #79494E",
"7  c #6F4A6E",
"8  c #704A6E",
"9  c #734D71",
"0  c #8A0B04",
"q  c #AC3D12",
"w  c #AA3B0F",
"e  c #FF0000",
"r  c #FF0902",
"t  c #FE020D",
"y  c #FF1202",
"u  c #FF1A0C",
"i  c #FD0717",
"p  c #FE1B13",
"a  c #FE2718",
"s  c #FF391B",
"d  c #FF371B",
"f  c #FA0828",
"g  c #F4173C",
"h  c #834600",
"j  c #884A00",
"k  c #804716",
"l  c #844917",
"z  c #894C17",
"x  c #80471C",
"c  c #854B1A",
"v  c #8A4E1B",
"b  c #8B501E",
"n  c #91521C",
"m  c #B64113",
"M  c #834920",
"N  c #8E5626",
"B  c #BC5B30",
"V  c #9B6938",
"C  c #AD6E36",
"Z  c #A36D3A",
"A  c #A9713D",
"S  c #AF7037",
"D  c #BB793D",
"F  c #FF5900",
"G  c #FF502B",
"H  c #FD5A34",
"J  c #FF6234",
"K  c #FF7739",
"L  c #EC1F4E",
"P  c #E80051",
"I  c #EA1F52",
"U  c #E92554",
"Y  c #B67A42",
"T  c #C37F41",
"R  c #FF7741",
"E  c #FF7D44",
"W  c #F47A59",
"Q  c #FFF800",
"!  c #FFF217",
"~  c #FFEE2F",
"^  c #FFF122",
"/  c #FFED36",
"(  c #BF8046",
")  c #CA8545",
"_  c #C78142",
"`  c #D38C4B",
"'  c #DD9552",
"]  c #FF8B4C",
"[  c #F28C4C",
"{  c #E69B55",
"}  c #EA9E57",
"|  c #E29752",
" . c #FE9653",
".. c #FF9A54",
"X. c #EF8A4B",
"o. c #FFB549",
"O. c #EDA159",
"+. c #F3A55B",
"@. c #FFAC5F",
"#. c #FDAC5F",
"$. c #FDAB5E",
"%. c #FFA55C",
"&. c #FFB155",
"*. c #FFB159",
"=. c #FFAD60",
"-. c #FEAC60",
";. c #FFAE61",
":. c #FEAD62",
">. c #FFAD61",
",. c #FFB062",
"<. c #FFB263",
"1. c #FFB061",
"2. c #FFB665",
"3. c #FFB363",
"4. c #FFB966",
"5. c #FFBB67",
"6. c #FFBC6A",
"7. c #F0A470",
"8. c #FFC15C",
"9. c #FAE646",
"0. c #D5C679",
"q. c #DDCD71",
"w. c #FFC16B",
"e. c #E6D566",
"r. c #003BBB",
"t. c #0C3DB8",
"y. c #163DB8",
"u. c #403BB4",
"i. c #0044B9",
"p. c #0049BB",
"a. c #1349B8",
"s. c #0054BB",
"d. c #0A56B9",
"f. c #2344B7",
"g. c #2A4DBA",
"h. c #374DB6",
"j. c #3A4EB5",
"k. c #2D52B7",
"l. c #3352B6",
"z. c #3F51B5",
"x. c #3952BA",
"c. c #604C8F",
"v. c #4B4FB3",
"b. c #4044B4",
"n. c #4252B4",
"m. c #4B52B3",
"M. c #4456BF",
"N. c #5B52B1",
"B. c #5252B2",
"V. c #784BA9",
"C. c #4D71B4",
"Z. c #676DAE",
"A. c #706BAC",
"S. c #7678AA",
"D. c #0045C0",
"F. c #3C56C4",
"G. c #4357C2",
"H. c #4458C4",
"J. c #982A9A",
"K. c #BD2F85",
"L. c #BB3F88",
"P. c #A23897",
"I. c #C03983",
"U. c #A44396",
"Y. c #B3588F",
"T. c #814AA6",
"R. c #807FA7",
"E. c #9D77A1",
"W. c #AF859B",
"Q. c #BB8695",
"!. c #B68598",
"~. c #8382A7",
"^. c #D38082",
"/. c #CF928A",
"(. c #D19389",
"). c #D99787",
"_. c #C18A91",
"`. c #C0B589",
/* pixels */
"                                                                                                                                ",
"                                                                                                                                ",
"                                                                                                                                ",
"                                        e e e e e e e e e e e e e e e e e e e e                                                 ",
"                                        e e e e e e e e e e e e e e e e e e e e                                                 ",
"                                          e e e e e e e e e e e e e e e e e e e                                                 ",
"                                  e e e e e e e e e e e e e e e e e e e e e e e e e e e e e e e e e e                           ",
"                                  e e e e e e e e e e e r r r r r r r r e e e e r r r r e e e e e e e                           ",
"                                  e e e e e e e e e e e r r r r r r r e e e e e r r r e e e e e e e e                           ",
"                                  e e e e e e e e e e e e e e e e e e e e e r e e e e e r e e e e e e                           ",
"                                  m q q q q q q q q q w [ .. . ... ...X.0 0 & B .. .%.]                                         ",
"                                  4 2 3 2 < < < < 3 3 < O.,.,.,.<.<.3.O.. + . V 3.,.6.                                          ",
"                                  k > > , l , l , , > - } ;.;.$.:.$.,.} . # . Z ,.@.4.@.                                        ",
"                                  N v b c , , 1 c b v v O.;.-.;.;.$.,.} . @ . V 3.@.4.,.                                        ",
"                          k c = D +.+.+.T ; l - ` +.O.+.$.-.-.;.;.-.;.} . # . V ,.@.,.@.;.;.;.;.;.;.;.                          ",
"                          z b = _ 3.,.3.) = l - { 3.;.,.;.$.;.$.$.-.,.} . # . V ,.@.@.,.3.4.3.3.3.3.5.                          ",
"                          k c = Y ;.$.;._ = c > ' 3.;.;.;.;.-.;.;.-.:.} . . . V ,.,.,.;.-.;.-.-.;.-.;.                          ",
"                          l c = D ,.:.,.) = 4 > ` :.+.+.-.$.-.;.-.;.,.} 5 5 * Y +.O.O.-.;.-.-.-.;.;.,.                          ",
"                          l c = D ,.;.,.) = , , l c l l } ,.;.-.-.;.-.;.:.O.2.` . $ . Y ,.$.-.-.-.-.;.;.;.;.;.                  ",
"                          , c = D ,.$.;.) > b c c x l l } ,.-.;.-.-.;.;.+.:.2.` . o . Y ,.+.:.-.$.$.$.$.;.;.;.                  ",
"                          z n ; _ 3.,.3.) % ; = = ; = = } ;.$.;.;.-.;.;.4.:.6.' . @ . _ 5.,.,.4.,.,.3.5.4.6.-.                  ",
"                          k c = D } { { ) Z S S C C C C +.;.-.;.$.;.-.$.' ' { Y . O . V } ' ' ' ' ' | +.;.;.;.                  ",
"                                  k , = ` 3.@.;.;.;.;.;.;.;.-.@.;.-.;.{ . . . . X . X . . . . . . . .                           ",
"                                  l l = ) ,.@.;.-.-.;.$.;.-.-.;.-.-.,.} . X O o O O @ X . . . . . . .                           ",
"                                  n v ; ` ,.@.-.;.-.;.$.-.-.;.-.;.-.;.} . . . . . . . . o X X X X X X                           ",
"                                  l c : ' 3.;.-.$.;.-.;.;.$.$.;.-.-.;.+.A A A A A A Y N . o X . . . .                           ",
"                                          5.;.;.-.-.-.;.-.;.;.;.-.;.;.;.,.,.,.,.3.,.w.                                          ",
"                                        $.3.$.;.-.-.-.-.-.-.-.;.$.$.$.-.:.-.:.;.@.@.3.$.                                        ",
"                                          w.,.3.*.*.*.&.*.3.3.3.3.3.3.3.*.*.&.&.,.,.w.                                          ",
"                                  e y e J E R K ^.W.!.!.W K R K R R K W W.!.W.^.K R E J e y e                                   ",
"                                  e e r e e e e J.D.i.i.P r e e e e r P i.i.i.J.e e e e r e e                                   ",
"                                  e e e y u p y U.d.N.n.U y p u u p y U n.N.d.U.y p u y e e e                                   ",
"                                  e e e e e e e U.s.v.l.I e t e e t e I l.v.s.U.e e e e e e e                                   ",
"                          e e e e e e e e e t e U.s.v.l.U e t e e t e I l.v.s.U.e t e e e e e e e e e                           ",
"                          e e e e e e e e e t e U.s.m.l.U e i t t i e U l.v.s.U.e e e e e e e e e e e                           ",
"                          e e e e e e e e e e e U.s.v.l.L e e e e e e L l.v.s.U.e t e e e e e e e e e                           ",
"                          e e e e e e e e e e e P.s.m.l.U e f i i f e U l.m.s.U.e e e e e e e e e e e                           ",
"                  e e e e e e e e e e e e e t e U.s.m.z.V.T.T.T.T.T.T.V.z.v.s.U.e t e e e e e e e e e e e e e                   ",
"                  r r r r r r r r e e e t t t e U.s.B.n.d.s.s.s.s.s.s.d.z.N.s.U.e t t e e e e r r r r r r r r                   ",
"                  e e e e e e e e e e e e e e r P.p.b.f.v.m.v.m.m.m.m.m.f.b.D.P.e e e e e e r e e e e e e e e                   ",
"                  s s s d s s s a e r e f g g f Y.C.Z.Z.n.z.z.z.z.z.j.m.Z.A.C.Y.f g L f e e e a s d d d s s s                   ",
"                  $.;.$.$.$.%.,.] e i e L.k.N.u.0./ 9.9.R.a.m.z.n.n.a.R.9.9./ 0.u.N.D.U e i e ] ,.%.$.$.$.;.$.                  ",
"                  ;.3.,.;.;.$.3.] e a y L.s.n.r.0.^ 9./ R.y.n.z.n.n.y.R./ 9.^ 0.r.M.s.Y.y a e ] 3.;.;.;.;.,.;.                  ",
"                  ;.3.@.-.-.$.,.] e e e K.s.v.y.q.Q ~ ! R.y.m.x.n.n.t.~.! ~ Q q.y.B.D.I.e e e ] ,.$.;.;.;.,.;.                  ",
"                  ;.,.@.;.@.@.,. .G H F Y.s.v.f.`.e.e.e.S.f.n.z.n.n.f.S.e.q.e.`.f.m.s.Y.F H G  .,.-.;.;.@.3.@.                  ",
"                  ;.,.@.@.;.;.@.$.;.-.*._.r.m.n.j.j.j.j.z.z.n.z.z.z.z.z.j.j.j.z.n.n.i.Q.*.:.;.@.;.;.;.$.@.3.;.                  ",
"                  ;.,.@.;.@.;.;.-.:.;.*.!.i.m.z.x.j.j.h.z.z.z.z.z.z.z.z.j.j.h.j.n.n.i.Q.*.;.;.@.;.-.-.-.@.,.;.                  ",
"                  ;.3.@.-.;.@.@.$.*.*.o._.i.m.z.n.n.n.n.z.z.z.z.z.z.z.n.n.n.n.n.n.m.i._.o.$.*.$.-.;.$.;.;.,.;.                  ",
"                  ;.3.;.;.@.;.@.7.(.(.).E.a.m.z.z.z.z.z.z.z.z.z.z.z.z.z.z.z.z.z.n.n.a.E.).(.(.7.@.;.$.;.@.3.@.                  ",
"                  ;.3.;.;.;.;.&./.r.i.i.g.n.z.z.z.z.z.z.z.z.z.z.z.z.n.z.z.z.z.z.z.z.z.g.i.p.r./.&.;.;.;.;.3.;.                  ",
"                  @.;.;.;.;.-.*.).a.m.n.n.z.z.z.z.z.z.z.z.z.n.z.z.z.z.z.z.z.z.z.z.z.z.z.m.m.a.).*.:.$.;.@.,.3.                  ",
"                  ;.w.3.4.4.4.8.).p.m.n.z.z.z.z.z.z.z.z.G.H.H.G.G.H.G.G.z.z.z.z.z.z.z.z.z.m.p.).*.5.4.4.4.w.,.                  ",
"                                !.g.n.z.z.z.z.z.z.z.z.z.z.            z.z.z.z.z.z.z.z.z.z.z.g.Q.                                ",
"                                  M.n.n.z.z.z.n.z.z.z.z.                z.z.z.z.z.n.z.z.z.z.M.                                  ",
"                                  M.n.n.n.j.n.z.z.n.z.z.                z.z.z.z.n.n.n.z.z.n.G.                                  ",
"                                  F.l.x.x.x.x.x.x.G.G.G.                G.M.M.M.l.x.x.l.x.x.F.                                  ",
"                          k x h 6 9 9 7 8 8 9 9 c.                            c.9 8 8 8 8 8 9 6 h 1 l                           ",
"                          v z v h h h h h h h j                                 j h h h h h h j c z z                           ",
"                          k , k k 1 1 1 1 1 1 M                                 M 1 1 1 x 1 1 1 l , l                           ",
"                          c k k k k k k l , , c                                 c c , , l , , l , l c                           ",
"                  , , l k k k k k k k k , k l l                                 c l , l 1 k k k l , l , , , l                   ",
"                  l v l z k k k k k k k l k k l                                 c , , , k k k k 1 , , z z v ,                   ",
"                  l k k k k k k 4 k l , , , , c                                 z , , , k k k k k 4 , , l , l                   ",
"                  , c k , k k k , 1 , , l , l l                                 c , l , l k k k k , , l , c ,                   "
};
