/* XPM */
static char *cacfde6f3ea24ad1ad9d18a71eb49437KnQktanSU0JFDZc6[] = {
/* columns rows colors chars-per-pixel */
"64 64 194 2 ",
"   c #61170E",
".  c #611B0F",
"X  c #630012",
"o  c #6B0017",
"O  c #67001D",
"+  c #6B031C",
"@  c #6A0A19",
"#  c #71061A",
"$  c #710C1B",
"%  c #6D1710",
"&  c #6B1D15",
"*  c #6E141C",
"=  c #651E19",
"-  c #6F181D",
";  c #721A11",
":  c #721618",
">  c #5F260E",
",  c #5E251B",
"<  c #5F2B1A",
"1  c #62260E",
"2  c #632B0D",
"3  c #6B2D0F",
"4  c #752400",
"5  c #792600",
"6  c #772A00",
"7  c #792C00",
"8  c #71240F",
"9  c #742D0E",
"0  c #782E0E",
"q  c #793000",
"w  c #78340E",
"e  c #652614",
"r  c #6A2715",
"t  c #672815",
"y  c #6C2B14",
"u  c #64251D",
"i  c #6D221B",
"p  c #662B1A",
"a  c #6B2B1A",
"s  c #762716",
"d  c #752D14",
"f  c #792D16",
"g  c #732E1A",
"h  c #782A1D",
"j  c #6B3015",
"k  c #6A3019",
"l  c #763411",
"z  c #7B3315",
"x  c #7D3916",
"c  c #75311B",
"v  c #79351B",
"b  c #7B3521",
"n  c #7D3823",
"m  c #812F16",
"M  c #823216",
"N  c #8C3615",
"B  c #8F3814",
"V  c #853519",
"C  c #883B18",
"Z  c #913B15",
"A  c #9C3B17",
"S  c #923C1B",
"D  c #A03C1B",
"F  c #AC3B19",
"G  c #8A540F",
"H  c #8E5A0F",
"J  c #905D0F",
"K  c #814114",
"L  c #8F4613",
"P  c #854B13",
"I  c #9B401C",
"U  c #8F5B14",
"Y  c #8F5F18",
"T  c #AC4617",
"R  c #A3421A",
"E  c #AB441A",
"W  c #AD481D",
"Q  c #B14319",
"!  c #B1461B",
"~  c #BC4E1E",
"^  c #AE5816",
"/  c #BF501F",
"(  c #8F6019",
")  c #956015",
"_  c #A16F15",
"`  c #AE6914",
"'  c #A27115",
"]  c #AB7C15",
"[  c #C2451D",
"{  c #C24C1B",
"}  c #CA4E1B",
"|  c #D3451C",
" . c #C5511B",
".. c #C8511B",
"X. c #D5531C",
"o. c #D9551C",
"O. c #D35A1F",
"+. c #DA5A1E",
"@. c #EE5D1D",
"#. c #F2511F",
"$. c #FC541F",
"%. c #F05D1D",
"&. c #FC5D1E",
"*. c #C36719",
"=. c #D56B1A",
"-. c #D4751D",
";. c #D5791D",
":. c #F4621F",
">. c #FF641F",
",. c #FE6A1E",
"<. c #FD701F",
"1. c #FE7D1D",
"2. c #C45220",
"3. c #C85420",
"4. c #D35620",
"5. c #D85A20",
"6. c #FC4E20",
"7. c #FD5420",
"8. c #F65A25",
"9. c #FD5D23",
"0. c #E56123",
"q. c #EB6224",
"w. c #F36120",
"e. c #FD6422",
"r. c #FE6C25",
"t. c #EC7021",
"y. c #FE7124",
"u. c #FD7C23",
"i. c #FF7228",
"p. c #FD7E28",
"a. c #8B5445",
"s. c #8E584C",
"d. c #AF810F",
"f. c #B1840F",
"g. c #AF8211",
"h. c #D48B15",
"j. c #D2891A",
"k. c #C59611",
"l. c #C59C10",
"z. c #F4851C",
"x. c #FE841E",
"c. c #FE8C1A",
"v. c #FF961F",
"b. c #FF981E",
"n. c #CAA40B",
"m. c #D4AC07",
"M. c #D3AC0B",
"N. c #D3B106",
"B. c #D8B207",
"V. c #D6B10B",
"C. c #C8A010",
"Z. c #FDB40F",
"A. c #F2AA11",
"S. c #FDAC11",
"D. c #FDA51B",
"F. c #FDAC1B",
"G. c #FDB416",
"H. c #FCBC16",
"J. c #FEB21A",
"K. c #FD8422",
"L. c #FE8E23",
"P. c #FE8D2E",
"I. c #FE9322",
"U. c #FF9923",
"Y. c #FE932E",
"T. c #FE952D",
"R. c #FE9A2C",
"E. c #FE9330",
"W. c #FDA924",
"Q. c #FEA229",
"!. c #ECC905",
"~. c #EBC60A",
"^. c #EDCA0A",
"/. c #F4CF02",
"(. c #FEC50D",
"). c #FECB0A",
"_. c #F3D301",
"`. c #FCD502",
"'. c #FDD702",
"]. c #FDD800",
"[. c #FED901",
"{. c #FEDB01",
"}. c #FDDD00",
"|. c #FFDF00",
" X c #FDD208",
".X c #FDD10B",
"XX c #FED10E",
"oX c #FCC710",
"OX c #FDCB13",
"+X c #FDD010",
"@X c #FFE000",
"#X c #FEE200",
"$X c #FFE200",
"%X c #FFE600",
/* pixels */
"s.a.a.a.a.a.a.a.a.a.a.a.a.a.a.a.a.a.a.a.a.a.a.a.a.a.a.a.a.a.a.s.a.a.a.a.a.a.a.a.a.a.a.a.a.a.a.a.a.a.a.a.a.a.a.a.a.a.s.a.a.a.a.s.",
"d 4 4 7 q q q q q q q q q q q q q q q q q q q q q q 7 5 5 5 4 4 4 6 q q q q q q q q q q q q q q q q q q q q q q q 5 5 5 4 4 4 d ",
"n v v - O O O O O O O O O O O O O O O O O O O O O O O a p p c v v h O O O O O O O O O O O O O O O O O O O O O O O u k p k v v n ",
"n z - ] C.l.l.l.l.l.l.l.l.l.l.l.l.l.l.l.l.l.l.l.l.l.k. .{ } S c : ) C.l.l.l.l.l.l.l.l.l.l.l.l.l.l.l.l.l.l.l.l.l.C.*.[ ..E c f n ",
"n v O V.%X@X@X@X@X@X@X@X@X@X@X@X@X@X@X@X@X@X@X@X@X@X'.,.>.>.Q j o d.@X|.@X@X@X@X@X@X@X@X@X|.|.|.@X@X|.@X@X@X|.|.@Xc.9.,.5.p f n ",
"n x O M.@X X[.[.[.'.[.[.'.[.'.[.'.[.[.'.[.'.[.[.'.|.'.,.&.>.E y o ] @X'.'.[.'.[.'.[.[.'.[.'.[.[.'.[.[.[.'.[.[.[.|.c.$.>.X.p f n ",
"n x O M.@X[.'.)..X.X X X.X X X.X X). X X.X.X X X.X X).,.>.>.E j o d.[.[.|. X.X.X X). X X.X.X X X.X X.X X.X X X X Xx.7.e.X.p z V ",
"n x O M.|.[.OXY.Y.Y.Y.Y.Y.Y.Y.Y.Y.Y.R.Y.Y.Y.T.Y.Y.Y.Y.e.&.>.! y o d.|.[.'.R.Y.Y.Y.R.Y.Y.Y.Y.T.T.Y.Y.Y.Y.Y.Y.Y.Y.Y.y.&.e.X.p v n ",
"n x O M.|.[.OXP.Y.Y.T.T.Y.Y.Y.Y.Y.Y.Y.Y.R.Y.E.Y.Y.Y.P.:.>.>.Q j o d.@X[.[.R.P.Y.Y.Y.Y.Y.T.Y.Y.R.T.T.T.T.Y.Y.Y.Y.Y.r.&.>.X.p z b ",
"n x O M.@X|.OXY.R.Y.Y.Y.Y.Y.Y.R.T.T.Y.Y.Y.Y.R.Y.T.Y.Y.>.&.>.Q j o d.@X@X[.Q.Y.Y.Y.Y.Y.R.Y.Y.Y.Y.Y.Y.T.Y.Y.Y.Y.Y.Y.y.&.>.X.t z n ",
"n z = -.v.c.c.y.y.y.y.y.y.y.y.y.y.y.y.y.y.y.y.y.y.y.r.>.>.>.F y & ^ v.c.c.y.y.y.y.y.y.y.y.y.y.y.y.y.y.y.y.y.y.y.y.:.>.>.X.p f n ",
"n z p } 7.$.$.&.&.&.&.&.&.&.&.>.&.&.&.&.&.&.&.&.&.&.&.>.&.>.T r r F $.$.$.&.>.&.&.&.&.>.&.&.&.&.&.>.&.&.&.>.&.&.>.>.>.>.X.p z n ",
"n z u o.r.>.>.>.>.>.>.e.e.>.>.>.e.>.>.>.>.>.e.e.>.>.>.>.e.>.Q r r Q ,.>.,.>.e.>.e.>.e.>.>.>.e.e.>.e.>.>.e.>.>.>.>.>.>.>.o.p v n ",
"n f g ! o.X.X.X.X.X.X.X.X.X.X.X.X.X.X.X.X.X.X.X.X.X.X.X.X.X.A g d A X.X.X.X.X.X.X.X.X.X.X.X.X.X.X.X.X.X.X.X.X.X.X.X.X.X.Q d d n ",
"b s f y t t t t t t t t t t t t t t t t t t t t t t t t t e d d d d e e t t t t t t t t t t t t t t e e t t t t t t t t r f d v ",
"v d f s s s f s s s s s s s s s s s f s s s s s s f d f f f g s s s s s s s s s s s s s s s s d d s s s s s s s s f s f f f d b ",
"b d d x K K K K K K K K K K K K K K K K K C K x m M m d d d x K C K K K K K K K K K K K K K K K C K K K K K K C K M z M f s d v ",
"v w X n.[././././._./././././._./././._././._.A.#.:.@.z w X m.[./._./././._./././././._./././._._._././._._././._.z.8.e...r w v ",
"v w X N.@X[.[.[.[.[.[.[.[.[.[.[.[.[.[.[.[.[.@XG.7.r.>.0 w X B.@X[.[.[.[.[.[.[.[.[.[.[.[.[.[.[.[.[.[.[.[.[.[.[.[.|.c.9.r.X.1 0 z ",
"v w X m.|.'.'.|.[.|.[.|.[.[.|.[.[.[.|.[.[.@X@XZ.$.r.%.m l o B.|.[.[.[.|.[.[.[.[.[.|.[.[.[.|.[.[.[.[.|.[.[.@X[.[.|.c.9.r.X.1 l z ",
"c w X m.|.'. XG.G.G.G.G.G.G.G.G.J.G.G.G.G.J.G.b.9.>.:.w w o B.|.'.).G.G.G.G.G.G.G.G.G.G.G.G.G.G.G.G.G.G.G.G.G.G.G.1.9.r.X.2 s z ",
"v l X m.|.'.).c.c.v.I.L.I.I.c.I.v.I.c.I.v.c.v.K.e.e.w.z l X B.|.[.(.L.c.c.I.I.I.v.L.I.c.L.v.c.I.L.I.c.v.L.I.c.I.I.y.e.r.O.1 w z ",
"v w X m.|.[.).I.v.v.b.b.v.v.b.b.v.v.b.b.b.b.v.x.9.>.:.z l X B.|.[.(.I.v.b.b.b.b.b.b.v.b.b.b.b.b.b.v.b.b.b.b.v.v.v.y.e.r.X.e l z ",
"v w X m.|.'.).I.U.v.v.b.I.v.v.v.v.v.v.v.v.I.b.x.e.>.:.l w o B.|.[.(.v.v.v.v.v.v.v.v.v.I.v.v.v.v.I.b.v.v.v.v.v.v.b.<.e.r.O.1 l z ",
"v w X N.|.[.).v.v.v.v.v.v.v.v.v.v.v.v.v.v.v.b.K.e.e.:.z l o B.|.[.(.I.v.v.v.v.v.v.v.v.v.v.v.v.v.v.v.v.v.v.v.v.v.b.<.e.r.X.2 d z ",
"l w X M.|.[.).I.v.v.v.v.v.v.v.v.v.v.v.v.v.v.b.x.9.>.%.w l X B.@X[.(.c.v.v.v.v.v.v.v.v.v.v.v.v.v.v.v.v.v.v.v.v.v.b.y.e.r.X.2 0 z ",
"v w X M.|.[.).v.v.v.v.v.b.v.v.v.v.b.v.v.b.v.b.x.e.e.w.M l X B.|.[.(.v.v.v.b.v.v.v.v.v.v.v.v.v.b.v.v.v.v.v.v.v.v.b.y.:.r.O.> 0 v ",
"c 0 1 *.x.x.1.r.,.y.,.r.<.y.,.y.y.y.,.y.<.r.y.,.e.>.%.z 0 r =.K.x.u.y.y.y.,.y.y.y.y.<.r.y.<.y.<.<.y.y.y.<.y.y.y.y.,.r.r.X.> w v ",
"v w e } &.9.&.9.:.e.>.e.>.9.>.&.>.&.>.&.>.&.>.9.e.>.@.z 9 3 o.e.9.9.e.>.w.e.e.e.>.>.e.e.e.>.e.e.e.:.e.e.>.e.e.e.>.r.r.r.X.1 9 z ",
"v 0 1 o.,.r.r.,.,.e.e.,.r.>.,.>.,.e.r.,.e.r.,.,.>.r.>.M d 1 +.r.r.r.r.r.r.r.r.r.r.r.r.r.r.r.r.r.r.r.r.r.r.r.r.e.r.e.r.r.O.2 w v ",
"z 9 y T ........ .....} ........ . . ... .......} ..{ l 9 d T .. ......... . ...}  .....}  . ................. .}  . ...T r 9 z ",
"v 9 l 3 2 2 2 2 2 2 2 2 1 1 1 1 > 2 2 2 2 2 2 2 2 2 2 w w l 3 2 2 2 2 2 2 2 2 2 2 1 1 1 1 1 1 2 2 2 2 2 2 2 2 2 2 2 2 2 3 l 9 z ",
"c 9 l y ; ; % % ; ; y d 9 9 w d d ; ; & ; ; % & ; ; % & % % % & ; ; & ; ; ; ; ; g 9 9 9 d w l ; ; ; ; ; & ; ; ; ; ; & % s 9 9 z ",
"v 9 s P H H U U H H Z C B z d d l H H H H H H H H H H U H H H U H H H H H H H H L B B C d d d G H H H H H U G H H H H U P s 9 v ",
"n x O M.@X[.'.'.'._.K.e.y.2.< * ( '.[.'.[.'.'.'.'.'.`.`.[.'.'.`.[.[.[.'.`.'.'.|.D.8.i.0.p c i ~.}.'.[.[.[.[.}._.'.|.'.@XN.X w v ",
"n x O M.@X[.|.|.|.|.K.r.y.2.< * ( '.|.@X'.@X'.@X|.[.|.|.'.|.|.|.[.@X[.|.'.|.'.@XD.9.y.0.p g i ^.@X'.|.[.'.|.|.}.'.@X'.@XV.X w w ",
"n x O N.@X|.|.}.|.@XK.r.r.2.< * ( [.}.}.|.|.}.@X|.}.}.@X@X|.|.}.}.#X}.}.#X#X}.#XD.8.i.0.p g i !.%X'.'.#X}.}.}.}.@X}.}.@XN.X l x ",
"n v @ j.J.F.F.F.F.F.y.r.i.2.< - ( [.}.}.G.F.F.F.F.F.F.F.F.F.F.F.F.F.F.F.F.F.F.J.K.r.i.0.p c i !.}.}.oXF.J.F.F.F.F.F.F.J.h.X l v ",
"n z = -.U.L.L.L.L.L.i.r.y.2.< * ( [.@X}.W.K.L.L.L.L.L.L.L.L.L.L.L.I.I.L.L.L.L.L.y.r.i.0.p c i !.@X}.H.K.I.L.L.T.I.L.L.I.-.. w v ",
"n z = -.U.I.I.I.I.Y.t.r.y. .< * ( [.[.}.F.I.I.I.I.I.U.U.I.U.I.U.I.I.I.L.U.I.U.U.p.r.r.0.a c i !.@X%XH.I.I.I.I.I.I.I.I.U.;.. w l ",
"n z = -.U.I.I.I.I.I.u.i.i.2.< * ( [.|.|.F.L.U.I.I.I.I.U.I.I.I.I.I.I.I.I.I.I.L.I.K.r.i.0.u c i !.|.@XH.L.I.I.I.I.I.I.U.I.-.. d c ",
"n z = -.U.I.I.I.L.I.y.q.r.2.u * ( [.[.}.D.L.I.I.I.I.I.I.I.U.I.I.I.I.U.I.U.I.U.I.u.w.i.0.p b i !.@X@XH.L.U.I.U.I.U.I.I.I.-.. 9 x ",
"n v = -.U.I.I.Y.U.U.r.r.r.2.< * ( }.|.|.W.I.U.I.I.I.I.I.I.I.I.I.I.I.U.I.U.I.U.I.u.r.i.0.p g i ^.}.@XH.L.I.I.I.I.I.U.I.U.-.. 0 v ",
"V v = -.U.I.I.I.L.L.i.r.i.2.< - ( _.[.[.D.K.I.I.U.I.I.I.I.Y.I.I.I.I.I.I.I.I.L.L.u.e.i.0.p g i ~.}.'.H.L.I.I.I.L.I.I.I.I.-.. w v ",
"v d u O.r.i.r.y.r.i.r.r.i.2.u a C y.p.u.i.r.y.i.i.i.r.i.i.r.i.r.i.i.i.r.i.r.i.r.r.r.i.0.u g g t.p.u.y.r.i.r.r.i.i.y.r.y.4.> 9 z ",
"b d e 4.r.r.r.r.r.r.w.i.i.2., g S r.e.w.e.i.r.r.r.r.e.r.e.r.r.r.r.r.r.r.r.r.r.r.r.r.i.0.p g g q.r.r.i.q.r.r.r.r.r.r.r.i.O.> w x ",
"b f = +.i.y.i.i.r.i.i.r.i.3., a S i.i.i.i.i.r.r.r.y.i.r.i.i.r.i.r.y.i.i.i.r.i.r.r.i.i.q.u g a w.i.r.i.i.i.r.i.i.i.e.r.i.O.> 0 z ",
"v 9 y R ~ / / T ~ ~ ~ ~ 2.I a g v ~ ~ ~ ~ ~ ~ ~ ~ ~ ~ ~ ~ ~ ~ ~ / ~ W ~ ~ ~ ~ ~ W ~ / W g v g W ~ ~ ~ ~ ~ ~ ~ ~ ~ ~ ~ 2.R y l n ",
"v 9 9 d y k k k k k k k k c x x v j k k k k k k k k k p a y p p p p k j k k k p k k k j V v x k p k k k k k k k k p p p g v d V ",
"v 9 l ; $ $ $ $ $ $ $ $ $ @ + + # $ $ $ $ $ $ $ $ $ : g g c v z V f $ $ $ $ $ $ $ $ $ $ + # + $ @ $ $ $ $ $ $ $ $ g c d g v g n ",
"c 0 8 H ' ' _ _ _ ' ) ' _ _ ' ' _ _ ' ) ' ' _ _ ' ' _ D A R V c s P ' _ ' _ _ _ _ _ ' _ ' ' _ _ _ ' ' ' ' _ _ _ _ R A R S c f n ",
"v w X M.@X[.[.[.[.[.@X|.[.|.[.[.[.|.@X[.[.[.[.[.[.[. Xr.>.>.Q y + g.@X[.[.[.[.[.[.[.[.[.[.[.[.[.[.[.[.[.[.[.[.[.|.c.&.r.4.p z n ",
"v w X m.@X_.[.[.'.[.[.[.[.[.[.[.[.[.[.[.'.[.[.[.[.[. X,.&.>.T y + d.|.'.[.[.[.[.[.[.[.[.[.[.[.[.[.[.[.[.[.'.[.'.[.c.7.,.X.p f V ",
"v w X M.@X[.[.[.[.[.[.[.[.[.[.[.[.[.[.[.[.[.[.[.[.[.'.,.&.>.Q j o d.|.'.[.[.[.[.[.[.[.[.[.[.[.[.[.[.[.[.[.[.[.[.|.c.7.>.X.p z n ",
"v w X N.@X[.).R.Q.Q.Q.Q.Q.Q.Q.Q.Q.Q.Q.Q.Q.Q.Q.Q.Q.Q.U.,.>.>.E j o f.[.[.'.W.R.Q.Q.Q.Q.Q.Q.Q.Q.Q.Q.Q.Q.Q.Q.Q.Q.Q.Q.y.&.e.X.p h V ",
"v w X N.|.[.OXP.P.Y.E.P.E.P.Y.P.E.P.P.Y.Y.P.Y.P.Y.P.P.e.&.>.Q y o f.[.'.'.R.P.Y.E.P.Y.P.E.P.Y.Y.E.P.E.P.E.P.Y.P.Y.y.e.e.X.p v n ",
"v w X N.@X@XOXE.R.Y.R.Y.Y.E.R.E.T.T.R.Y.R.R.Y.R.Y.Y.Y.>.&.>.Q j o d.@X|.|.R.E.R.R.E.Y.E.R.E.Y.Y.R.T.R.T.R.Y.R.Y.Y.y.&.>.X.p z n ",
"v 9 X h.G.S.D.p.p.p.p.p.K.K.p.K.p.p.p.p.p.p.p.p.p.p.p.>.e.e.Q y @ ` G.S.S.K.p.K.p.K.K.p.p.K.p.p.p.p.p.p.p.p.p.p.K.,.&.>.X.p z n ",
"v 0 > | $.7.$.&.9.&.&.&.&.&.9.9.&.&.&.&.9.&.&.&.9.&.&.>.>.>.Q r y F 6.$.6.&.9.9.&.&.&.&.9.&.&.&.9.&.&.&.9.&.&.&.9.&.>.>.X.p f V ",
"c w 2 X.>.>.>.e.>.>.>.>.>.e.e.e.>.>.>.e.>.e.>.>.>.>.e.&.>.>.Q t t ! ,.>.>.>.>.e.>.>.>.>.e.e.e.e.>.>.e.>.>.>.>.e.e.>.&.e.X.p v n ",
"z 0 2  .:.%.%.%.%.%.%.%.%.%.%.%.%.%.%.%.%.%.@.@.@.@.%.@.@.:.E y r E 8.@.%.%.%.@.%.%.%.8.@.@.@.8.%.%.%.%.%.%.@.%.%.%.%.:...p f V ",
"v 9 9 d f f f f f f v f f f f f v f f f f z z f f z f f f f s d d f f z f f z f f f f z f f z f f f f f f f z f f f f f f d g n ",
"v 9 l d d d d s d d d d d d f d d d d d s d d d d s d d d d d d d d d d d s d d d d d d d d d d d w f d d d d d d d d d d f d v ",
"l 9 9 d d f s f f f d f s f f f f s f s f f f f d f f f f f f f s f s f d f f f f s f f d f f s f s f f f s f f f f s f f s s b "
};
